HIERARCHY
ROOT Hips
{
	OFFSET -14.64140 90.27770 -84.91600
	CHANNELS 6 Xposition Yposition Zposition Zrotation Xrotation Yrotation
	JOINT Spine
	{
		OFFSET 0.00000 13.20850 -1.60436
		CHANNELS 3 Zrotation Xrotation Yrotation
		JOINT Spine1
		{
			OFFSET 0.00000 8.61716 0.00000
			CHANNELS 3 Zrotation Xrotation Yrotation
			JOINT Spine2
			{
				OFFSET 0.00000 8.61717 0.00000
				CHANNELS 3 Zrotation Xrotation Yrotation
				JOINT Spine3
				{
					OFFSET 0.00000 8.61717 0.00000
					CHANNELS 3 Zrotation Xrotation Yrotation
					JOINT Neck
					{
						OFFSET 0.00000 11.07920 1.10792
						CHANNELS 3 Zrotation Xrotation Yrotation
						JOINT Neck1
						{
							OFFSET 0.00000 7.08032 0.00000
							CHANNELS 3 Zrotation Xrotation Yrotation
							JOINT Head
							{
								OFFSET 0.00000 7.08031 0.00000
								CHANNELS 3 Zrotation Xrotation Yrotation
								End site
								{
									OFFSET 0.00000 0.00000 0.00000
								}
							}
						}
					}
					JOINT RightShoulder
					{
						OFFSET -0.01000 7.91373 5.19711
						CHANNELS 3 Zrotation Xrotation Yrotation
						JOINT RightArm
						{
							OFFSET -18.41580 0.00000 0.00000
							CHANNELS 3 Zrotation Xrotation Yrotation
							JOINT RightForeArm
							{
								OFFSET -29.11090 0.00000 0.00000
								CHANNELS 3 Zrotation Xrotation Yrotation
								JOINT RightHand
								{
									OFFSET -24.65040 0.00000 0.00000
									CHANNELS 3 Zrotation Xrotation Yrotation
									JOINT RightHandThumb1
									{
										OFFSET -5.35114 -0.85590 3.97906
										CHANNELS 3 Zrotation Xrotation Yrotation
										JOINT RightHandThumb2
										{
											OFFSET -4.52789 0.00000 0.00000
											CHANNELS 3 Zrotation Xrotation Yrotation
											JOINT RightHandThumb3
											{
												OFFSET -2.46976 0.00000 0.00000
												CHANNELS 3 Zrotation Xrotation Yrotation
												End site
												{
													OFFSET 0.00000 0.00000 0.00000
												}
											}
										}
									}
									JOINT RightHandIndex1
									{
										OFFSET -14.26970 0.00000 2.88139
										CHANNELS 3 Zrotation Xrotation Yrotation
										JOINT RightHandIndex2
										{
											OFFSET -5.48836 0.00000 0.00000
											CHANNELS 3 Zrotation Xrotation Yrotation
											JOINT RightHandIndex3
											{
												OFFSET -3.01859 0.00000 0.00000
												CHANNELS 3 Zrotation Xrotation Yrotation
												End site
												{
													OFFSET 0.00000 0.00000 0.00000
												}
											}
										}
									}
									JOINT RightHandMiddle1
									{
										OFFSET -14.26970 0.00000 -0.09147
										CHANNELS 3 Zrotation Xrotation Yrotation
										JOINT RightHandMiddle2
										{
											OFFSET -6.17441 0.00000 0.00000
											CHANNELS 3 Zrotation Xrotation Yrotation
											JOINT RightHandMiddle3
											{
												OFFSET -3.56743 0.00000 0.00000
												CHANNELS 3 Zrotation Xrotation Yrotation
												End site
												{
													OFFSET 0.00000 0.00000 0.00000
												}
											}
										}
									}
									JOINT RightHandRing1
									{
										OFFSET -12.69180 0.00000 -3.06433
										CHANNELS 3 Zrotation Xrotation Yrotation
										JOINT RightHandRing2
										{
											OFFSET -5.62556 0.00000 0.00000
											CHANNELS 3 Zrotation Xrotation Yrotation
											JOINT RightHandRing3
											{
												OFFSET -3.56744 0.00000 0.00000
												CHANNELS 3 Zrotation Xrotation Yrotation
												End site
												{
													OFFSET 0.00000 0.00000 0.00000
												}
											}
										}
									}
									JOINT RightHandPinky1
									{
										OFFSET -11.11390 0.00000 -6.03719
										CHANNELS 3 Zrotation Xrotation Yrotation
										JOINT RightHandPinky2
										{
											OFFSET -4.52789 0.00000 0.00000
											CHANNELS 3 Zrotation Xrotation Yrotation
											JOINT RightHandPinky3
											{
												OFFSET -2.46976 0.00000 0.00000
												CHANNELS 3 Zrotation Xrotation Yrotation
												End site
												{
													OFFSET 0.00000 0.00000 0.00000
												}
											}
										}
									}
								}
							}
						}
					}
					JOINT LeftShoulder
					{
						OFFSET 0.01000 7.91373 5.19711
						CHANNELS 3 Zrotation Xrotation Yrotation
						JOINT LeftArm
						{
							OFFSET 18.41580 0.00000 0.00000
							CHANNELS 3 Zrotation Xrotation Yrotation
							JOINT LeftForeArm
							{
								OFFSET 29.11090 0.00000 0.00000
								CHANNELS 3 Zrotation Xrotation Yrotation
								JOINT LeftHand
								{
									OFFSET 24.65040 0.00000 0.00000
									CHANNELS 3 Zrotation Xrotation Yrotation
									JOINT LeftHandThumb1
									{
										OFFSET 5.35114 -0.85590 3.97906
										CHANNELS 3 Zrotation Xrotation Yrotation
										JOINT LeftHandThumb2
										{
											OFFSET 4.52789 0.00000 0.00000
											CHANNELS 3 Zrotation Xrotation Yrotation
											JOINT LeftHandThumb3
											{
												OFFSET 2.46977 0.00000 0.00000
												CHANNELS 3 Zrotation Xrotation Yrotation
												End site
												{
													OFFSET 0.00000 0.00000 0.00000
												}
											}
										}
									}
									JOINT LeftHandIndex1
									{
										OFFSET 14.26970 0.00000 2.88139
										CHANNELS 3 Zrotation Xrotation Yrotation
										JOINT LeftHandIndex2
										{
											OFFSET 5.48836 0.00000 0.00000
											CHANNELS 3 Zrotation Xrotation Yrotation
											JOINT LeftHandIndex3
											{
												OFFSET 3.01859 0.00000 0.00000
												CHANNELS 3 Zrotation Xrotation Yrotation
												End site
												{
													OFFSET 0.00000 0.00000 0.00000
												}
											}
										}
									}
									JOINT LeftHandMiddle1
									{
										OFFSET 14.26970 0.00000 -0.09147
										CHANNELS 3 Zrotation Xrotation Yrotation
										JOINT LeftHandMiddle2
										{
											OFFSET 6.17440 0.00000 0.00000
											CHANNELS 3 Zrotation Xrotation Yrotation
											JOINT LeftHandMiddle3
											{
												OFFSET 3.56744 0.00000 0.00000
												CHANNELS 3 Zrotation Xrotation Yrotation
												End site
												{
													OFFSET 0.00000 0.00000 0.00000
												}
											}
										}
									}
									JOINT LeftHandRing1
									{
										OFFSET 12.69180 0.00000 -3.06433
										CHANNELS 3 Zrotation Xrotation Yrotation
										JOINT LeftHandRing2
										{
											OFFSET 5.62556 0.00000 0.00000
											CHANNELS 3 Zrotation Xrotation Yrotation
											JOINT LeftHandRing3
											{
												OFFSET 3.56744 0.00000 0.00000
												CHANNELS 3 Zrotation Xrotation Yrotation
												End site
												{
													OFFSET 0.00000 0.00000 0.00000
												}
											}
										}
									}
									JOINT LeftHandPinky1
									{
										OFFSET 11.11390 0.00000 -6.03719
										CHANNELS 3 Zrotation Xrotation Yrotation
										JOINT LeftHandPinky2
										{
											OFFSET 4.52789 0.00000 0.00000
											CHANNELS 3 Zrotation Xrotation Yrotation
											JOINT LeftHandPinky3
											{
												OFFSET 2.46976 0.00000 0.00000
												CHANNELS 3 Zrotation Xrotation Yrotation
												End site
												{
													OFFSET 0.00000 0.00000 0.00000
												}
											}
										}
									}
								}
							}
						}
					}
					JOINT pCube4
					{
						OFFSET 0.00000 10.91090 1.10792
						CHANNELS 3 Zrotation Xrotation Yrotation
						End site
						{
							OFFSET 0.00000 0.00000 0.00000
						}
					}
				}
			}
		}
	}
	JOINT RightUpLeg
	{
		OFFSET -9.98441 0.00000 0.00000
		CHANNELS 3 Zrotation Xrotation Yrotation
		JOINT RightLeg
		{
			OFFSET 0.00000 -42.11790 0.00000
			CHANNELS 3 Zrotation Xrotation Yrotation
			JOINT RightFoot
			{
				OFFSET 0.00000 -45.00020 -0.00001
				CHANNELS 3 Zrotation Xrotation Yrotation
				JOINT RightForeFoot
				{
					OFFSET 0.00000 -3.74820 0.00000
					CHANNELS 3 Zrotation Xrotation Yrotation
					JOINT RightToeBase
					{
						OFFSET 0.00000 0.06325 14.43120
						CHANNELS 3 Zrotation Xrotation Yrotation
						End site
						{
							OFFSET 0.00000 0.00000 0.00000
						}
					}
				}
			}
		}
	}
	JOINT LeftUpLeg
	{
		OFFSET 9.98441 0.00000 0.00000
		CHANNELS 3 Zrotation Xrotation Yrotation
		JOINT LeftLeg
		{
			OFFSET 0.00000 -42.11800 0.00000
			CHANNELS 3 Zrotation Xrotation Yrotation
			JOINT LeftFoot
			{
				OFFSET 0.00000 -45.00070 0.00000
				CHANNELS 3 Zrotation Xrotation Yrotation
				JOINT LeftForeFoot
				{
					OFFSET 0.00000 -3.74824 0.00000
					CHANNELS 3 Zrotation Xrotation Yrotation
					JOINT LeftToeBase
					{
						OFFSET 0.00000 0.06325 14.43110
						CHANNELS 3 Zrotation Xrotation Yrotation
						End site
						{
							OFFSET 0.00000 0.00000 0.00000
						}
					}
				}
			}
		}
	}
}
MOTION
Frames: 4
Frame Time: 0.050000
0.04693572643297836 0.03397557648022067 0.011585909331005484 0.02628146992975058 0.03566245961964808 -0.04477832146451183 -1.8271204177488853 1.3778450053520068 -0.8317606921597654 -0.9706914438461757 3.8386896009923244 0.3586144133892943 -1.1606969578876838 -1.858555695497204 -0.5748332907806727 -0.0007072149529952602 0.39092962923997493 -0.7497403662620751 -0.19594438367529685 14.076655323042402 0.014941000770886958 -0.08522226463619648 0.3054759249468341 -2.1087057827563704 -0.07136339157998597 -14.793712887853102 -0.13189556960124602 -6.206546724714484 2.16486675957113 -13.595465068493974 66.72812804294315 14.739413280308868 18.667482529329543 0.6043563077743296 -2.916516847585897 93.67634462452985 8.879363296848723 -0.12521574956394518 -0.5909166680203561 4.494366291964071 -0.15308461715411842 -1.5953675428811125 0.009003023169456519 -0.028971174246734056 -56.27120617184434 -0.036379008608018834 0.019105797466162935 -56.246377769920834 -38.78913134155859 0.019145173478127817 0.029189387646903788 0.022924754599228315 -0.042506252880273744 -0.003586408619476546 -0.009264812182833182 0.009013449885283926 0.0036821336323073295 -36.64527690377092 0.015245122164872211 -0.03430773293031889 0.03635450975317031 0.012479653653687752 -0.020850685822362464 0.012078222774796216 0.022149881095940682 0.0005807013178781139 -19.731447418430122 0.01387589040123468 -0.03239953723942125 0.010776952680366504 -0.04492748280117812 -0.04157581249306371 0.0483336072078105 0.0357868417895982 -0.0014262307008340055 24.06674621209528 0.012671603578865313 -0.039911165696391325 28.84745490421171 0.0056184069165017975 -0.03620711322151529 28.853972675447892 -0.003309511253856109 0.01944794945144706 7.929273804495045 1.7541313364395454 12.761917374007984 -66.02974296401071 23.00065427445997 -19.742838372946814 8.1629225250527 -11.946559715413562 -91.03551985781705 -1.5428984309847023 0.9358918751804272 -1.3541156286054505 -0.4740654441490244 0.09395982530423043 -8.118587882188047 0.0005712653921182043 -0.03923386695380626 44.579853534797024 0.020680223692615525 -0.009061259527547159 44.616610873807105 12.446949613306401 0.03164580860340187 0.04877102029105397 -0.03489734583350822 0.044368301587109645 -0.009178015659010937 -0.04314562941115549 0.009197133748662645 -0.04293462215990575 11.137286477726157 0.007618098984350034 0.03393871014094875 0.0021495716860727653 0.03822211552765728 0.03602186386076624 0.029363569492897625 0.0002057843428271211 -0.016858546159921252 4.82226036649783 -0.022407589205429197 0.04996565551433092 -0.009051331679397898 -0.034603005760284994 -0.03810056331406071 -0.03253279847487148 -0.008706208769173931 0.030842499474569 -5.623265485535073 0.04254167767322759 -0.008112728276941504 -6.685155276718369 0.04198893839187773 0.0010873293029270428 -6.754417360850829 -0.007717654649404346 0.02400872264670002 -0.0009166017844725014 0.0019976680824756675 0.016891419433413647 8.050149348286354 3.490063311150242 -19.19882238954102 0.0031664151878497203 10.389053983383567 0.04411847721250786 -5.575739522797297 -15.699465956136038 3.2192593676079215 -0.007561176114575052 -0.015187299915188269 0.04298341205911831 0.015777276947846423 4.730022456296112 -0.010654746682548382 12.445508319573385 -8.275796549030261 6.930159661600503 -0.03182195886364492 46.34739401019185 -0.014612406949795011 -4.279805950187248 -14.739702223526415 -3.7912044227517883 0.003980731319252839 -0.024392099361959827 -0.01825283415618332 -0.0008219376148011732 -10.757229586636692 -0.028434502470853523 
0.029630894433584895 0.02718075668857832 -0.03457886229722371 0.030959047861468428 0.0312814177940075 -0.01613777317020075 -1.943407954075786 1.437189438925126 -0.8766916741668498 -1.0082777131962481 3.8235439388856265 0.3611101787989951 -1.1331407029554825 -1.8776864478019928 -0.6729173121577681 -0.08271764402468058 0.3789315300994001 -0.7922320697691898 -0.2783357078223633 14.271754143475272 0.09575198717703576 -0.1649594290575246 0.38922218937297937 -1.7950817044624403 -0.10508803692991252 -14.696517134592472 -0.13247188172995797 -6.443506697807014 2.2381034837456 -13.535559590616442 66.04783162518936 12.352081616859623 19.90227241208567 1.7443279304535138 -2.5277391906779973 93.04631094875235 9.021966365618777 -0.1426041086628736 -0.4799960722675708 4.5459920779431915 -0.13148672425054328 -1.571609547773105 -0.012493595773484557 -0.032321294382734025 -56.1924508824403 -0.014922307887425327 -0.04585182200514348 -56.24929603923244 -38.73148374743343 -0.01082313560363667 -0.041083050501273644 0.0012574108911312587 0.047495684044384305 0.03140823096578454 -0.02482882945977479 0.0411616059861871 -0.04875206168773924 -36.68044219003727 0.000830911407808779 0.024657293525256363 4.030099967981445e-06 -0.014243518235371394 -0.03425584543000709 0.03757305882898157 0.00479594721035793 0.0016966505695655027 -19.743774979089395 0.010712071843363577 0.03460736562536338 -0.023690782726503493 -0.03382557072564646 0.02743029680050449 -0.015142956111809878 0.019859866216958018 -0.03636089956080088 24.01683932488898 0.0015702772090661447 0.023760354031777293 28.829605549274294 0.03871028558573812 -0.01323159716711827 28.886169694719392 -0.044995933871715535 0.004534488479252055 8.306626507003974 1.8470405849591018 12.716084705729893 -65.24825580830915 21.127371428400078 -22.054711173711077 5.5953836392769185 -10.293541771673418 -90.31526334561067 -1.9440139267064498 1.23698387877815 -1.3948944409373925 -0.4323476774940186 0.04046077527890047 -8.11192196788381 -0.007805448788979707 0.005535380411835862 44.55005739311034 0.03519781204519259 0.04428445989885615 44.551261865924765 12.43480512919517 -0.035692697900043896 0.02697083479507665 -0.011788838407989347 0.006678766097314925 0.027524065900120742 -0.03147842549390344 -0.01979004656325452 0.01732909481592554 11.094424030201884 0.006178777161826881 0.03872147429232247 -0.0009439225883582374 0.006264370873083944 -0.01509150157184555 -0.030456027377485057 -0.011455614407789475 -0.03897290513334732 4.813721667174632 0.027835257250036008 -0.028063572732063193 0.038855880820145225 0.02028791345267475 -0.025177350444830448 0.03345949606664366 0.004522537859696349 -0.025175379306824456 -5.566506235904145 0.02445127156665291 0.015149939021568531 -6.6976866070887295 -0.01938248925741657 -0.007763770254210806 -6.693035962528479 0.028419057621021822 0.01418395785100748 -0.02349678536872111 0.018247058288213415 0.02881493314993967 8.021162491885413 3.5353069503619143 -19.197508109797578 0.02715264136226372 10.359243107614946 0.054193494493404784 -5.6654837735898935 -15.6882015942254 3.181721597429847 0.010192132435688433 -0.030920604325538455 -0.04031370010041939 0.042312759423670215 4.737352160871295 0.02952614638141766 12.487533239615223 -8.240471316509673 6.87178336238273 -0.020804362044155273 46.3414874179567 0.03952001553960155 -4.352665057726955 -14.720856326019497 -3.8533293894507956 -0.023685562843404354 -0.001902384811386091 0.009999766613157138 0.04134980343266175 -10.700316276832233 -0.028298379565168577 
0.023523408829539186 -0.04185646790772335 0.01304813952488976 0.007219259105433577 -0.02118945064127093 -0.02659113271281735 -2.01519816326346 1.4544569576504236 -0.8618765409797343 -0.9825513978544327 3.8176364112221393 0.3914383040247445 -1.152165257338099 -1.8860042409952924 -0.8296751626510463 -0.10542116887873093 0.34140414581812495 -0.7930765093754437 -0.3685186961679237 14.483372338984179 0.15541750765264117 -0.1182633231691514 0.4535445875842146 -1.5030120238293219 -0.12258106764031436 -14.52458223695725 -0.06919374102331917 -6.807368059061504 2.2891835061530195 -13.445161427874542 65.21848762471255 10.065914653913055 21.30816373013647 2.1290038862993947 -2.18525418115461 92.68334705680554 9.226473179186113 -0.10552829251926385 -0.40659881146176624 4.546836300091416 -0.16073764701877863 -1.6128047223068223 0.007155441445096996 0.006778660627107693 -56.2124250437472 -0.015373246895014661 -0.038000948876155544 -56.212460557312994 -38.73640858597142 -0.04202496864794326 0.0061544600226139355 0.04676550769171819 -0.04861299458600669 -0.016722714189023 0.021541079698723577 0.022656946060144602 -0.012034267913324143 -36.70795288990775 -0.03923767500356901 -0.00843060850269165 -0.049003535211976146 -0.002607117702636358 0.02776221079867362 -0.035920786135077695 -0.017697277490164275 0.012299638387911887 -19.767100383747394 0.008715269529004362 0.04965898080341516 -0.0186287696977042 0.007245644994090054 -0.049054358609196574 -0.0038638206850112426 0.04874883049568404 0.01402783072160395 24.068319108134002 -0.01116493951612403 -0.03562431567034067 28.846630643386856 0.049060397942499834 0.0034561073981103437 28.89770970843823 -0.0056940218551594654 0.010333454333081204 8.896091391231625 1.968849798197586 12.549213527875462 -64.27984935823295 19.46039457092839 -24.710713156955798 3.7629835760090726 -8.908207066322792 -89.9499356510059 -2.387865393621414 1.4424500400710305 -1.4790531462540113 -0.5160333549387992 0.04626315437991946 -8.13537466447873 -0.027760500272367348 -0.006073377364770471 44.5842438671758 -0.017020299820479323 0.028751960974053477 44.584214778788805 12.421495690711845 -0.014562408518056884 0.037114571518339155 -0.004562370037308257 -0.040053907157361325 0.022575776176977307 0.03260212053908281 -0.03589825739589213 -0.006793708879514776 11.147826044446168 -0.026442694897788326 -0.04270287752290559 0.0037278253756834784 -0.017387186555654455 0.03112533821309004 -0.03895214876483934 -0.004669617902528781 -0.028304927412981764 4.80922783062356 -0.021230795911809684 -0.02523699757142659 0.029057169561452278 -0.029237386408617755 -0.03413763510391235 0.01085987397060824 -0.0051934001206332394 -0.020673887583556195 -5.588959857264923 0.031620726710654294 0.005131721336569155 -6.751723694567816 0.0020546050447352907 -0.025233591688317878 -6.702221006813276 0.022500277695003294 -0.04116092212722504 -0.015755920993416776 0.0046786023297898 -0.0025951925106651253 8.039092380784632 3.5094421299168284 -19.176284592176284 -0.013885789431353079 10.36599709453346 0.004309396596823174 -5.668533433632397 -15.688087778504748 3.1663812104372195 -0.020232285737872394 -0.03619987652610637 -0.007079116963947666 0.03171514280861326 4.6578322414752185 -0.034004689807121236 12.434065833942359 -8.265913565165445 6.864379349329098 -0.008550450154533549 46.412589097254894 -0.018566333422950568 -4.326093015088383 -14.714422251738922 -3.8537579559139474 0.01366945114847951 -0.012275372383074171 0.014249793794516616 -0.03958672643612224 -10.785761880696146 -0.013252640015294321 
0.023571296297195364 0.020962702554381873 -0.00926701455007877 -0.006084873019179251 0.02421491354271004 -0.032271224467594554 -2.1563490227326803 1.4875749961681046 -0.8100327403024639 -1.0178000989790126 3.8234095083305433 0.3662328621426846 -1.1236044639094551 -1.893691103684278 -0.9322374247464833 -0.130371614624364 0.3538499832545139 -0.7884982773072348 -0.4129402276894669 14.6880064847004 0.17042592005460694 -0.08461789014441656 0.6157152782660664 -1.3408774967296402 -0.21281425469927723 -14.418153094382966 -0.013653889958600764 -7.148506468494288 2.4228039270669868 -13.440235162467546 64.4031492464385 7.652108515125946 22.819727281120116 1.645502552225909 -2.1017991140366905 92.9326077318065 8.89185764205138 -0.13422573660094816 -0.2652264768773869 4.527914036291747 -0.10558271573338862 -1.6421572355493164 0.022180135186713405 0.036820883236490014 -56.27408344960116 0.016310084785080437 -0.020144231961583766 -56.19385583527203 -38.77455478121974 0.011312658757693257 -0.01007358975896427 0.034727568769215574 0.018962356497605897 -0.0031013603127021468 0.024164087917191296 -0.021817708465312103 0.034358069643685644 -36.652140647130636 -0.04943692043530088 0.020843285309712547 0.04596665297135779 0.04169834920822042 0.015403163482104933 -0.04698789133939435 0.027489103576697527 0.03230966950301962 -19.735428969843607 -0.013905203644367967 0.037135332450927726 0.010974265979439133 -0.010262588445825895 0.008297802700643656 -0.03761474746644202 -0.0015973947174786618 -0.03781596508012236 24.024084002296735 -0.022385444256784324 0.008578923518905471 28.897561150027492 -0.035738259536653175 0.023208386995142025 28.86219413268344 0.019998974560011994 0.0030360845633164383 9.402545983288265 2.0858680814756583 12.543150377900067 -63.27924948180272 18.023434525633874 -27.669297603283162 2.428087553795515 -7.542685407084102 -90.44242003843698 -2.4956763603377983 1.5983018539815625 -1.527225891955513 -0.47235295567823454 0.029594396005472187 -8.170270974554404 0.014792325564529842 0.011556816050723466 44.54459832628859 -0.0005980719469321252 -0.010267914519095797 44.583565290773045 12.461344368851721 -0.0240413656319289 0.00847522464541021 0.023007904790076323 0.03490283204465762 0.022368692386894224 -0.013967287847206605 0.0276933079325737 0.020071956462700567 11.098200960425505 -0.036007612445202196 -0.019358681941209162 0.0221733569319805 -0.006501868824799159 0.03347121804315024 -0.03973373385664066 -0.042179691258286606 -0.01982569876396563 4.730483614810168 -0.012622990322447554 0.03817190830727351 0.0091669320733827 -0.017905537301417758 0.011756804135915925 -0.003955435049081714 -0.02999337933771885 -0.02927993243057682 -5.611087862022225 0.02116619385920374 0.026104462417539432 -6.741859507565184 0.04968888844129437 -0.00874275424909294 -6.697917937188972 0.020342739106491488 0.03763560135580689 -0.0031319957010286703 0.030761889420378937 -0.020615131215941513 8.027404722696557 3.4883704246701424 -19.225470891021228 -0.0314803027028315 10.38405152222183 0.052203044279900024 -5.58141432845145 -15.644677207281779 3.178110278638567 -0.04912955620060022 0.040393848573774274 0.04147948903023939 -0.027076134206673312 4.680353601959331 0.030927677995086538 12.425666215439396 -8.245940852295055 6.870720119857193 0.011959870833082692 46.37424264126356 -0.030988235129478743 -4.284003910106822 -14.745533137778324 -3.800406063499005 0.00947630066981885 -0.03147638001442491 -0.043343726462961585 -0.00208117786331172 -10.76459092582035 0.011520329740971016 
